<?xml version="1.0" encoding="utf-8"?>
<svg width="292" height="304" viewBox="0 0 292 304" xmlns="http://www.w3.org/2000/svg">
<rect id="frame" x="0" y="0" width="292" height="304" fill="#f7f7f7" stroke="none" stroke-width="0"/>

<!-- Association posséder -->
<g class="page_0_Ia4aiEj1 diagram_page" visibility="visible">
	<line x1="251" y1="60" x2="152" y2="60" stroke="#7fbc41" stroke-width="2"/>
	<text x="192" y="77" fill="#c51b7d" font-family="Verdana" font-size="12">0,N</text>
	<line x1="48" y1="60" x2="152" y2="60" stroke="#7fbc41" stroke-width="2"/>
	<text x="90" y="77" fill="#c51b7d" font-family="Verdana" font-size="12">0,N</text>
	<g>
		<path d="M173 35 a14 14 90 0 1 14 14 V60 h-70 V49 a14 14 90 0 1 14 -14" fill="#b8e186" stroke="#b8e186" stroke-width="0"/>
		<path d="M187 60 v11 a14 14 90 0 1 -14 14 H131 a14 14 90 0 1 -14 -14 V60 H70" fill="#e6f5d0" stroke="#e6f5d0" stroke-width="0"/>
		<rect x="117" y="35" width="70" height="50" fill="none" rx="14" stroke="#7fbc41" stroke-width="2"/>
		<line x1="117" y1="60" x2="187" y2="60" stroke="#7fbc41" stroke-width="1"/>
		<text x="125" y="52.75" fill="#000" font-family="Verdana" font-size="12">posséder</text>
	</g>
</g>

<!-- Association appartenir -->
<g class="page_0_Ia4aiEj1 diagram_page" visibility="visible">
	<line x1="48" y1="253" x2="48" y2="161" stroke="#7fbc41" stroke-width="2"/>
	<text x="53" y="203" fill="#c51b7d" font-family="Verdana" font-size="12">0,N</text>
	<line x1="48" y1="60" x2="48" y2="161" stroke="#7fbc41" stroke-width="2"/>
	<text x="53" y="128" fill="#c51b7d" font-family="Verdana" font-size="12">1,1</text>
	<g>
		<path d="M73 136 a14 14 90 0 1 14 14 V161 h-78 V150 a14 14 90 0 1 14 -14" fill="#b8e186" stroke="#b8e186" stroke-width="0"/>
		<path d="M87 161 v11 a14 14 90 0 1 -14 14 H23 a14 14 90 0 1 -14 -14 V161 H78" fill="#e6f5d0" stroke="#e6f5d0" stroke-width="0"/>
		<rect x="9" y="136" width="78" height="50" fill="none" rx="14" stroke="#7fbc41" stroke-width="2"/>
		<line x1="9" y1="161" x2="87" y2="161" stroke="#7fbc41" stroke-width="1"/>
		<text x="17" y="153.75" fill="#000" font-family="Verdana" font-size="12">appartenir</text>
	</g>
</g>

<!-- Entity carte -->
<g class="page_0_Ia4aiEj1 diagram_page" visibility="visible">
	<g>
		<rect x="11" y="9" width="74" height="25" fill="#f1b6da" stroke="#f1b6da" stroke-width="0" opacity="1"/>
		<rect x="11" y="34" width="74" height="77" fill="#fde0ef" stroke="#fde0ef" stroke-width="0" opacity="1"/>
		<rect x="11" y="9" width="74" height="102" fill="none" stroke="#de77ae" stroke-width="2" opacity="1"/>
		<line x1="11" y1="34" x2="85" y2="34" stroke="#de77ae" stroke-width="1"/>
	</g>
	<text x="33" y="26.75" fill="#000" font-family="Verdana" font-size="12">carte</text>
	<text x="16" y="51.8" fill="#000" font-family="Verdana" font-size="12">code carte</text>
	<line x1="16" y1="54" x2="80" y2="54" stroke="#000" stroke-width="1"/>
	<text x="16" y="68.8" fill="#000" font-family="Verdana" font-size="12">titre</text>
	<text x="16" y="85.8" fill="#000" font-family="Verdana" font-size="12">position</text>
	<text x="16" y="102.8" fill="#000" font-family="Verdana" font-size="12">couleur</text>
</g>

<!-- Entity tag -->
<g class="page_0_Ia4aiEj1 diagram_page" visibility="visible">
	<g>
		<rect x="219" y="18" width="64" height="25" fill="#f1b6da" stroke="#f1b6da" stroke-width="0" opacity="1"/>
		<rect x="219" y="43" width="64" height="59" fill="#fde0ef" stroke="#fde0ef" stroke-width="0" opacity="1"/>
		<rect x="219" y="18" width="64" height="84" fill="none" stroke="#de77ae" stroke-width="2" opacity="1"/>
		<line x1="219" y1="43" x2="283" y2="43" stroke="#de77ae" stroke-width="1"/>
	</g>
	<text x="241" y="35.75" fill="#000" font-family="Verdana" font-size="12">tag</text>
	<text x="224" y="60.8" fill="#000" font-family="Verdana" font-size="12">code tag</text>
	<line x1="224" y1="63" x2="277" y2="63" stroke="#000" stroke-width="1"/>
	<text x="224" y="77.8" fill="#000" font-family="Verdana" font-size="12">nom</text>
	<text x="224" y="94.8" fill="#000" font-family="Verdana" font-size="12">couleur</text>
</g>

<!-- Entity liste -->
<g class="page_0_Ia4aiEj1 diagram_page" visibility="visible">
	<g>
		<rect x="14" y="211" width="68" height="25" fill="#f1b6da" stroke="#f1b6da" stroke-width="0" opacity="1"/>
		<rect x="14" y="236" width="68" height="59" fill="#fde0ef" stroke="#fde0ef" stroke-width="0" opacity="1"/>
		<rect x="14" y="211" width="68" height="84" fill="none" stroke="#de77ae" stroke-width="2" opacity="1"/>
		<line x1="14" y1="236" x2="82" y2="236" stroke="#de77ae" stroke-width="1"/>
	</g>
	<text x="35" y="228.75" fill="#000" font-family="Verdana" font-size="12">liste</text>
	<text x="19" y="253.8" fill="#000" font-family="Verdana" font-size="12">code liste</text>
	<line x1="19" y1="256" x2="77" y2="256" stroke="#000" stroke-width="1"/>
	<text x="19" y="270.8" fill="#000" font-family="Verdana" font-size="12">nom</text>
	<text x="19" y="287.8" fill="#000" font-family="Verdana" font-size="12">position</text>
</g>
</svg>